<?xml version="1.0" encoding="UTF-8"?><svg xmlns="http://www.w3.org/2000/svg" id="a" viewBox="0 0 343 208"><defs><style>.b,.c,.d{fill:none;}.e{fill:#fff;}.e,.c{stroke-linejoin:round;}.e,.c,.d{stroke:#000;stroke-linecap:round;}.f{fill:#fefefe;}.g{fill:#ffeea3;}.h{fill:#F7D22D;}.d{stroke-miterlimit:10;}</style></defs><g><path class="h" d="M330.65,109.32c.34-1.96,.26-3.94-.25-5.95-.5-2.01-1.44-3.99-2.81-5.91-.72-1-1.57-1.94-2.56-2.84-.34-.25-.67-.5-1.04-.73-1.7-1.1-3.51-1.94-5.44-2.5-1.93-.56-3.88-.83-5.85-.81-1.97,.02-3.9,.31-5.79,.9-1.89,.58-3.62,1.48-5.19,2.69-.83,.61-1.23,1.34-1.24,2.18,0,.67,.15,1.27,.45,1.81,.06,.02,.11,.04,.17,.06,.81,.19,1.62-.01,2.44-.63,1.05-.77,2.21-1.34,3.48-1.72,1.27-.38,2.57-.58,3.88-.6,1.31-.02,2.63,.16,3.95,.54,1.33,.38,2.56,.94,3.7,1.69,.95,.62,1.76,1.26,2.46,1.93,1.44,.99,2.59,2.04,3.4,3.14,.9,1.22,1.5,2.46,1.8,3.71,.3,1.25,.34,2.44,.12,3.56-.22,1.13-.62,2.14-1.19,3.03-.61,.93-1.32,1.7-2.14,2.32-.82,.61-1.73,1.11-2.73,1.48-1,.38-2.08,.67-3.24,.88-1.17,.21-2.4,.4-3.72,.56-.72,.08-1.4,.16-2.06,.24-.66,.09-1.31,.16-1.96,.22-2.24,.3-4.34,.8-6.29,1.52-1.95,.72-3.59,2.1-4.91,4.14-.55,.85-.68,1.67-.38,2.47,.09,.23,.19,.44,.31,.64,.44,.14,.91,.21,1.41,.18,.85-.05,1.55-.5,2.1-1.35,.72-1.1,1.73-1.83,3.05-2.18,1.32-.35,2.58-.62,3.79-.8,.6-.09,1.23-.18,1.89-.26,.66-.09,1.31-.16,1.96-.22,1.32-.17,2.71-.36,4.18-.59,1.47-.22,2.93-.61,4.39-1.17,1.45-.57,2.84-1.33,4.17-2.31,1.33-.98,2.52-2.27,3.57-3.89,1.08-1.66,1.79-3.46,2.12-5.41Z"/><path class="h" d="M296.02,137.69c.74-1.14,.96-2.35,.64-3.62-.17-.64-.43-1.22-.8-1.72-.91-.42-1.88-.56-2.92-.4-1.31,.21-2.34,.88-3.09,2.02-.72,1.1-.93,2.29-.64,3.57,.15,.66,.43,1.26,.83,1.79,.98,.48,1.99,.62,3.01,.41,1.26-.27,2.25-.95,2.97-2.06Z"/></g><path class="g" d="M93.78,91.85s-17.5-9.76-12.45-28.61c5.05-18.85,53.74-49.44,144.27-34.63,90.54,14.81,82.91,93.87,.11,94.21-82.8,.34-131.93-30.96-131.93-30.96Z"/><path class="g" d="M112.27,93.63c-48.42,16.76-87.09,55.87-75.54,82.09,11.55,26.22,93.33,12.49,138.9-.94,45.57-13.42,73.66-45.88,62.74-62.74-10.92-16.86-61.18-40.89-126.1-18.42Z"/><path class="f" d="M84.71,160.79l-4.79-3.39s21.27-43.73,41.8-50.96c12.72-4.19,12.87-4.62,12.87-4.62l4.63-17.94-2.21,19.34s-21.11,9.22-24.34,14.68c-3.23,5.45-27.95,42.89-27.95,42.89Z"/><path class="f" d="M163.48,99.79s26.02,1.3,42.93-.87c16.91-2.17,24.2-8.93,24.2-8.93l1.3-.43s-34.46,7.48-67.13,5.31c.43,1.59-1.3,4.91-1.3,4.91Z"/><path class="h" d="M80.92,158.36s24.55-43.08,39.35-48.02c6.97-2.75,10.85-4.98,10.85-4.98,0,0,3.34,8.48,16.28,6.79,15.01-1.95,16.69-14.65,16.69-14.65,0,0,39.15,.41,66.12-7.19-2.16,14.73,1.94,26.26,1.94,26.26l5.23-1.37s-.19,9.07-1.86,9.05c-6.46-.1-31.88,5.28-31.88,5.28,0,0-6.77,21.57,6.32,66.87-24.34,0-71.52,.9-71.52,.9l-20.46-45.09-10.54,22.14s-3.62,.22-8.33-2.22c-.66-.34,9.45-14.92,8.76-15.31-4.36-2.44-9.35-5.77-13.32-9.93-.28-.3-12.81,12.44-13.09,12.13-.68-.76,.06,.14-.54-.67Z"/><path class="c" d="M159.28,79.67s1.41,14.67,2.26,15.68c1.02,1.21,2.74,.7,2.74,.7l.22-1.13s28.85,.92,66.61-5.4"/><path class="c" d="M237.22,115.49c.14,5.16-.39,8.7-1.53,8.85-1.71,.23-4.13-7.34-5.41-16.91-1.28-9.57-.93-17.51,.78-17.74"/><path class="c" d="M227.69,125.54c-1.71,.23-4.87-5.66-6.14-15.23-1.28-9.57,1.39-19.44,3.1-19.66"/><path class="c" d="M218.71,126.96c-1.22,.04-4.62-6.65-5.05-16.29-.36-8.01,1.85-18.94,3.08-18.98"/><path class="c" d="M210.33,128.38c-1.13,.04-3.62-7.11-3.96-16.76-.34-9.65,2.43-19.01,3.57-19.05"/><path class="c" d="M202.91,118.46s.53,10.86,.5,11.09c-1.09,8.02-2.58,21.03-.94,31.57,2.98,19.15,7.3,35.26,7.3,35.26"/><path class="f" d="M231.51,58.42c.28-.12,.58-.21,.9-.26,2.12-.32,4.94-3.39,6.24-5.19,1.3-1.79,2-5.12,2.67-6.9l-2.67-1.98c0-3.79-12.28-19.13-12.28-19.13,0,0-.92-3.13-1.36-7.64-.8-8.23-4.35-7.18-4.35-7.18,0,0-.01,9.47-.01,14.37-2.75-2.55-14-16.72-16.65-14.08-2.23,2.22,11.26,16.18,10.4,17.07s-14.92-16.09-18.25-13.15c-3.27,3.4,14.52,18.22,14.13,18.84s-16.58-9.77-17.86-7.65c-2.16,3.93,15.5,14.72,19.23,17.07s4.51,7.46,0,7.07c-8.05-1.77-10.79,2.16-10.79,2.16,0,0,10.6,3.93,13.54,4.12s12.88-1.75,12.88-1.75c0,0,1.74,1.57,4.23,4.19Z"/><path class="c" d="M232.52,116.48s22.5-4.59,46.75-25.56c-1.75-15.07-11.36-22.5-18.13-27.96s-22.28-18.79-22.28-18.79"/><path class="f" d="M232.6,56.69c-.52,.41-1.15,.72-1.87,.91,3.86,3.97,10.12,11,14.25,18.69,5.63,10.49,9.87,12.85,10.75,13.25-.59-.72-3.64-4.19-9.15-14.45-4.03-7.5-10.09-14.39-13.97-18.4Z"/><path class="c" d="M255.89,89.61s-4.59-1.53-10.92-13.33c-6.34-11.8-17.69-22.06-17.69-22.06,0,0-9.93,1.94-12.88,1.75s-13.54-4.12-13.54-4.12c0,0,2.75-3.93,10.79-2.16,4.51,.39,3.73-4.71,0-7.07-3.73-2.36-21.39-13.15-19.23-17.07,1.96-2.94,17.34,8.95,17.86,7.65s-17.85-15.72-14.13-18.84c2.5-1.97,17.22,14.07,18.25,13.15,1.03-.92-13.15-14.52-10.4-17.07,2.75-2.55,13.91,11.53,16.65,14.08,0-4.91-.17-14.86-.17-14.86,0,0,3.91-.69,4.72,7.54,.44,4.51,1.17,7.76,1.17,7.76,0,0,14.52,17.27,11.78,21.2"/><path class="c" d="M231.06,89.7s9.73-1.28,18.48-5.93"/><path class="f" d="M183.57,196.75c-19.07-48.47-8.36-100.79-7.85-102.94l11.16-.37c-.12,.51-12.04,52.04,6.32,103.39"/><path class="c" d="M183.57,196.75c-19.07-48.47-8.26-100.95-7.75-103.09l11.16-.37c-.12,.51-12.15,52.2,6.22,103.54"/><path class="f" d="M147.84,196.76c-26.93-47.66-31.23-86.3-31.46-88.14l8.55-4.04c.4,1.15,5.85,44,34.3,92.15"/><path class="c" d="M147.84,196.76c-26.93-47.66-31.24-86.97-31.47-88.81l8.57-3.37c.4,1.15,5.85,44,34.3,92.15"/><path d="M184.67,196.75c-19.07-48.47-7.37-100.79-6.86-102.94l8.96-.37c-.12,.51-11.94,52.04,6.43,103.39"/><path d="M149.22,196.61c-26.93-47.66-30.81-87.51-31.05-89.35l6.76-2.67c.4,1.15,5.85,44,34.3,92.15"/><path class="c" d="M229.51,42.82s-9.62-3.93-15.7,.79"/><path class="c" d="M231.67,58.32s8.22-2.27,9.4-12.08"/><path class="c" d="M137.47,90.3s-1.73,10.13-3.27,11.83c-1.55,.77-9.05,3.23-9.05,3.23"/><path class="g" d="M93.6,147.62c-2.42,2.35-13.97,13.53-18.17,17.21-4.71,4.12-14.51,12.55-9.61,31.18,11.57,2.16,20-.59,26.87-12.75,4.89-8.66,12.17-21.61,15.95-28.33-5.75-.68-10.32-4-15.03-7.31Z"/><line class="c" x1="91.19" y1="196.84" x2="277.91" y2="196.84"/><g><path class="f" d="M106.73,120.46c.51,2,.96,3.35,1.36,3.23,.79-.23,1.7-3.4,1.59-10.36-.11-6.68,.49-8.91,2.26-9.26-.4-1.67-1-2.54-1.84-2.43-1.89,.25-2.53,2.42-2.42,9.3,.08,5.09-.38,8.15-.95,9.52Z"/><path class="f" d="M115.9,136.14c4.41,1.1,7.81-4.61,11.14-7.16,.78-.59,1.42-.86,1.96-.93l.36-.68s-.98-3.33-4.31-.78c-3.09,2.37-6.24,7.44-10.2,7.29,.2,1.34,.52,2.14,1.05,2.27Z"/><path class="f" d="M98.57,122.57c.78,1.79,1.42,2.99,1.8,2.88,.79-.24-.89-7.11-1.54-12.44-.38-3.1-2.6-11.57,.53-12.1,.29-.05,.57,.01,.84,.12-.77-1.63-1.7-2.7-2.83-2.51-3.13,.53-.91,9-.53,12.1,.56,4.58,1.87,10.29,1.73,11.96Z"/><path class="f" d="M78.15,124.81c-.28-.71-.23-1.4,.25-2.11,1.06-1.89,4.82,.65,8.33,2.59,3.51,1.94,5.9,3.99,6.58,3.49,.68-.5-1.72-5.94-2.79-10.22-1.59-6.35-3.16-10.73-1.13-11.75,.43-.21,.85-.17,1.29,.07-1.18-2.03-2.23-3-3.28-2.47-2.03,1.01-.46,5.39,1.13,11.75,1.07,4.28,3.47,9.72,2.79,10.22-.68,.5-3.07-1.55-6.58-3.49-3.51-1.94-7.27-4.48-8.33-2.59-1.01,1.48-.16,2.91,1.74,4.5Z"/><path class="f" d="M77.42,167.22c4.71-4.12,18.63-17.65,18.63-17.65,0,0-2.94-8.43-3.92-14.12-.61-.34-1.18-.71-1.74-1.07,1.15,5.58,3.67,12.8,3.67,12.8,0,0-13.92,13.53-18.63,17.65-4.71,4.12-14.51,12.55-9.61,31.18,.51,.09,1,.17,1.49,.24-3.62-17.13,5.59-25.07,10.11-29.03Z"/></g><path class="b" d="M116.42,146s.78,10.98,7.45,23.14c6.67,12.16,13.14,27.46,13.14,27.46"/><path class="f" d="M125.05,126.58c-3.33,2.55-6.73,8.26-11.14,7.16-1.56-.39-1.38-6.38-1.25-15.85,.15-10.17-.37-16.54-2.56-16.25-1.89,.25-2.53,2.42-2.42,9.3,.12,6.95-.79,10.13-1.59,10.36-.77,.22-1.72-4.98-2.95-9.87-.94-3.74-2.55-13.47-5.78-12.93-3.13,.53-.27,11.53,.11,14.63,.65,5.33,.9,9.91,.9,9.91,0,0-2.44-3.29-4.08-7.98-2.1-6.01-5.01-11.59-6.91-10.65-2.03,1.01-.19,6.29,1.48,12.62,1.11,4.19,2.44,9.35,2.44,9.35,0,0-3.07-1.55-6.58-3.49-3.51-1.94-7.27-4.48-8.33-2.59-1.63,2.39,1.58,4.65,6.24,7.67,2.21,1.43,4.59,3.44,7.49,5.08,.98,5.69,3.92,14.12,3.92,14.12,0,0-.81,.79-2.1,2.03,.02,.02,.04,.04,.06,.07,3.86,5.01,9.05,8.64,15.19,8.53l3.91-7.29,10.98-9.41,7.26-13.73s-.98-3.33-4.31-.78Z"/><path class="c" d="M92.69,183.26c-6.86,12.16-15.3,14.91-26.87,12.75-4.9-18.63,4.9-27.06,9.61-31.18,4.71-4.12,18.63-17.65,18.63-17.65,0,0-2.94-8.43-3.92-14.12-2.9-1.64-5.29-3.65-7.49-5.08-4.65-3.01-7.86-5.28-6.24-7.67,1.06-1.89,4.82,.65,8.33,2.59,3.51,1.94,5.9,3.99,6.58,3.49s-1.72-5.94-2.79-10.22c-1.59-6.35-3.16-10.73-1.13-11.75,1.9-.95,3.75,2.9,6.43,9.13,1.96,4.56,3.77,9.74,4.55,9.51s-.89-7.11-1.54-12.44c-.38-3.1-1.92-11.87,.85-12.18,3.26-.36,4.52,9.27,5.46,13.01,1.23,4.89,2.18,10.09,2.95,9.87s1.26-3.41,1.59-10.36c.3-6.4,.53-9.04,2.42-9.3,2.2-.29,2.71,6.08,2.56,16.25-.14,9.46-.31,15.46,1.25,15.85,4.41,1.1,7.81-4.61,11.14-7.16s4.31,.78,4.31,.78l-7.26,13.73-10.98,9.41s-11.57,20.59-18.44,32.75Z"/><path class="c" d="M102.73,140.05s3.71-6.29,11.14-6.41"/><path class="f" d="M125.35,58.58s-9.05-9.51-.56-21.47c8.57-12.07,25.65-15.4,30.56-10.64,9.06-1.07,16.3,7.79,18.91,13.47,4.27,8.89,5.68,24.5-1.38,32.95-7.06,8.44-13.08,9.47-13.08,9.47"/><path class="f" d="M122.27,40.5s-7.62-8.36-.31-13.27c5.62-3.78,5.97-7.38,11.75-7.52,5.07-.12,7.85,3.2,7.85,5.51"/><path class="f" d="M166.59,29.76s4.21-9.75,11.81-5.52c3.17,1.76,3.63,5.16,6.45,8.21,5.79,6.28,2.56,15.02-7.23,14.35"/><path class="c" d="M92.19,149.27s3.81,8.09,14.69,8.42"/><path d="M125.35,58.58s-8.25-9.02,.77-20.59c12.95-16.62,29.17-9.99,29.17-9.99,9.48-1.84,16.38,6.27,18.99,11.95,4.27,8.89,5.68,24.5-1.38,32.95-7.06,8.44-13.08,9.47-13.08,9.47"/><path class="c" d="M116.8,145.78s1.45,8.97,6.39,19.19c3.55,7.33,14.82,31.71,14.82,31.71"/><polyline class="c" points="99.19 172.22 107.54 174.43 117.98 151.55"/><path class="c" d="M81.31,159.08l-1.4-1.68s8.18-13.19,11.14-19.42"/><path class="d" d="M112.8,111.62c.71-.55,2.5-1.92,3.67-2.45"/><path class="f" d="M125.76,50.97s.58,2.22-.5,8.67c-1.07,6.45,4.76,28.77,12.14,30.33,5.54,1.17,14.04-2.77,18.5-7.53,4.45-4.76,6.32-6.13,7.44-10.06,4.15-.46,8.14-10.13,5.83-12.9-1.84-2.3-4.15,2-4.15,2,0,0,1.84-10.75-5.53-17.81-7.37-7.06-15.06-7.46-15.06-7.46,0,0-6.49,.92-12,5.03-6.92,5.16-6.68,9.73-6.68,9.73Z"/><path class="c" d="M125.76,50.97s.58,2.22-.5,8.67c-1.07,6.45,4.89,29.6,14.25,30.54,5.81,.58,18.21-5.08,23.83-17.8,4.15-.46,9.85-9.48,5.83-12.9-1.84-2.3-4.15,2-4.15,2,0,0,1.84-10.75-5.53-17.81-7.37-7.06-15.06-7.46-15.06-7.46,0,0-6.49,.92-12,5.03-6.92,5.16-6.68,9.73-6.68,9.73Z"/><path class="c" d="M125.35,58.58s-9.05-9.51-.56-21.47c8.57-12.07,25.65-15.4,30.56-10.64,9.06-1.07,16.3,7.79,18.91,13.47,4.27,8.89,5.68,24.5-1.38,32.95-7.06,8.44-13.08,9.47-13.08,9.47"/><path class="c" d="M122.27,40.5s-7.62-8.36-.31-13.27c5.62-3.78,5.97-7.38,11.75-7.52,5.07-.12,7.85,3.2,7.85,5.51"/><path class="c" d="M166.59,29.76s4.21-9.75,11.81-5.52c3.17,1.76,3.63,5.16,6.45,8.21,5.79,6.28,2.56,15.02-7.23,14.35"/><path d="M134.68,19.73c-5.78,.14-4.68,3.77-10.3,7.55-7.31,4.91-2.11,13.23-2.11,13.23,0,0,3.29-5.33,8.54-9.86,5.25-4.53,10.75-5.42,10.75-5.42,0-2.31-1.8-5.62-6.87-5.5Z"/><path d="M167.04,31.36s4.21-9.75,11.81-5.52c3.17,1.76,3.19,3.56,6,6.6,5.79,6.28,2,14.78-8.05,14.48"/><path class="c" d="M148.42,40.83s1.04,2.91,5.18,3.11,6.6,2.8,7.35,6.32"/><path class="c" d="M140.55,55.22l-3.93,7.56s1.6,3.22,4.56,1.55c1.58-.89,2.28,.1,2.28,.1"/><path class="c" d="M147.07,54.5s6.01-5.49,11.7,.93"/><path d="M154.63,53.98c0,1.32-.88,2.38-1.97,2.38s-1.97-1.07-1.97-2.38,.88-1.97,1.97-1.97,1.97,.65,1.97,1.97Z"/><path class="c" d="M127.5,54.5s5.26-4.81,10.61-.16"/><path d="M135.06,53.98c0,1.32-.88,2.38-1.97,2.38s-1.97-1.07-1.97-2.38,.88-1.97,1.97-1.97,1.97,.65,1.97,1.97Z"/><path class="c" d="M130.36,103.55s2.56,10.44,17.04,8.61,16.94-15.83,16.94-15.83"/><path class="c" d="M132.66,71.68c1.86,0,3.23-2.21,6.87-2.1,5.27,.16,6.03,2.59,9.76,2.16,0,0-1.6,5.26-8.96,5.47-6.12,.17-7.67-5.53-7.67-5.53Z"/><path d="M132.92,72.31c.62,1.32,2.74,5.12,7.5,4.99,4.55-.13,7.27-3.59,8.72-5.16-1.01-.06-.72-1.02-1.73-.07-1.64,1.54-12.14,1.57-13.87-.21-.77-.79-.42,.59-.62,.45Z"/><path class="c" d="M137.31,79.96l4.26,.17"/><path class="c" d="M141.3,41.03s-2.41,2.87-6.2,2.81c-2.81-.04-6.1,1.74-6.97,5.12"/><path class="c" d="M191.26,190.74c6.55-1.13,12.18-2.73,15.77-4.98"/><path class="c" d="M148.9,193.32c9,.07,21.03-.05,32.54-1.25"/><path class="c" d="M136.6,193.04s3.42,.16,8.8,.24"/><path class="c" d="M188.47,182.23c6.25-1.31,12.04-3.07,16.74-5.44"/><path class="c" d="M145.18,185.83c9.08,.04,21.4-.25,33.72-1.97"/><path class="c" d="M132.83,185.51s3.56,.21,9.22,.29"/><path class="c" d="M186.55,174.64c5.89-1.39,11.73-3.18,17.24-5.51"/><path class="c" d="M141.46,179.06c9.06,.12,21.78-.06,35.54-2.4"/><path class="c" d="M129.66,178.55s3.34,.3,8.83,.45"/><path class="c" d="M185.4,167.01c6.55-1.62,12.47-3.78,16.99-6.64"/><path class="c" d="M138.26,171.72c9.81-.04,23.7-.34,37.15-2.57"/><path class="c" d="M126.35,171.51s3.35,.16,8.72,.2"/><path class="c" d="M184.6,159.52c6.51-1.9,12.32-4.47,16.65-7.91"/><path class="c" d="M135.66,164.7c10.32,.12,24.8-.08,38.57-2.66"/><path class="c" d="M122.87,164.22s3.46,.26,9,.41"/><path class="c" d="M183.52,149.69c6.48-2.79,12.79-6.47,18.56-11.29"/><path class="c" d="M133.21,157.84c10.27,.45,24.96,.77,40.01-3.71"/><path class="c" d="M119.8,156.52s3.7,.67,9.75,1.1"/><path class="c" d="M125.72,110.53s2.26,10.41,23.6,8.41c21.65-2.03,23.5-23.35,23.5-23.35"/><path class="c" d="M126.03,123.35c6.01,2.22,13.98,3.84,23.82,3.03,11.44-.94,18.54-5,22.85-9.07"/><path class="c" d="M112.8,115.81s1.49,1.42,5.05,3.6"/><path class="c" d="M183.58,118.98c11.03-11.51,12.18-24.89,12.18-24.89"/><path class="c" d="M132.45,134.47c5.11,.78,11.18,.98,18.14,.02,8.97-1.24,15.83-3.28,21.61-6.51"/><path class="c" d="M112.93,127.02s2.56,2.07,7.47,4.12"/><path class="c" d="M183.19,140.66c14.87-6.84,20.08-14.54,20.08-14.54"/><path class="c" d="M131.5,150.5c5.42,.23,30.15-.33,41.01-4.9"/><path class="c" d="M117.35,148.25s2.89,1.23,9.32,1.9"/><path class="c" d="M123.99,142.34c-2.06-.28-2.58-.52-2.58-.52"/><path class="c" d="M172.33,137.05c-21.98,8.56-38.54,5.94-43.37,5.71"/><path class="c" d="M203.4,93.96s-1.04,14.5-9.28,27.27c0,0-3.47,5.17-11.36,10.39"/><path class="c" d="M88.14,190.04s10.54-8.86,14.98-16.2"/><path class="d" d="M104.94,118.72c.91-.71,1.76-1.5,2.53-2.37"/><line class="c" x1="235.69" y1="124.35" x2="203.41" y2="129.55"/><path class="c" d="M102.12,167.02c2.34,.86,4.94,1.63,7.81,2.24"/><path class="c" d="M82.8,152.71s.65,1.2,2.18,2.98"/><path class="c" d="M105.36,161.73c2.15,.69,4.54,1.29,7.17,1.78"/><path class="c" d="M86.05,147.18s.74,2.04,3.12,4.74"/><path class="c" d="M108.48,156.35c1.97,.61,4.13,1.15,6.5,1.59"/><path class="c" d="M89.29,141.98s.79,2.27,4.12,5.71"/><path class="c" d="M111.22,150.86c2.1,.67,4.4,1.25,6.91,1.72"/><g><path class="h" d="M67.86,95.26c.69-.67,1.04-1.45,1.05-2.32,0-.16-.02-.32-.04-.47-.63-.59-1.35-.89-2.19-.86-.89,.03-1.65,.35-2.29,.98s-.99,1.39-1.05,2.29c-.01,.19,0,.38,.02,.56,.6,.56,1.31,.84,2.14,.84,.89,0,1.68-.34,2.36-1.01Z"/><path class="h" d="M61.21,85.38s-.04-.06-.07-.09c-.63-.64-.96-1.42-1-2.35-.04-.93-.03-1.8,.03-2.63,.03-.41,.06-.84,.11-1.29,.04-.45,.09-.89,.14-1.33,.08-.9,.16-1.85,.23-2.86,.07-1.01,.03-2.04-.13-3.08-.14-.92-.41-1.83-.78-2.73-.34-.49-.74-.96-1.19-1.43-.94-.96-2.03-1.7-3.28-2.21-1.25-.51-2.58-.75-3.99-.72-1.41,.03-2.86,.36-4.34,.99-1.48,.63-2.91,1.62-4.29,2.96-.98,.96-1.8,2.04-2.47,3.24-.65,1.2-1.13,2.45-1.41,3.76-.28,1.31-.37,2.64-.26,3.97,.07,.94,.27,1.85,.57,2.73,.21,.18,.44,.3,.71,.36,.56,.13,1.09,.08,1.59-.15,.5-.23,.88-.59,1.13-1.1,.25-.51,.23-1.08-.06-1.71-.36-.81-.56-1.66-.63-2.56-.06-.9,0-1.79,.18-2.66,.18-.87,.5-1.72,.94-2.54s1-1.56,1.67-2.21c.96-.94,1.91-1.62,2.85-2.03,.94-.42,1.85-.63,2.73-.65,.87-.01,1.67,.13,2.38,.45,.72,.31,1.33,.72,1.83,1.24,.53,.54,.94,1.13,1.22,1.77,.1,.23,.18,.47,.26,.71,.29,.38,.22,.72,.41,1.14,.28,.64-.16,1.37-.06,2.09,.1,.72,.14,1.48,.11,2.28-.04,.8-.09,1.65-.18,2.55-.05,.49-.1,.96-.14,1.4-.04,.45-.09,.89-.14,1.33-.14,1.53,.08,2.09,.27,3.49,.05,.37,.91,1.63,1.03,1.98,.23,.3,.48,.6,.76,.89,.48,.49,1.01,.7,1.58,.62,.57-.08,1.06-.31,1.45-.7,.39-.38,.64-.86,.73-1.43,.01-.07,0-.13,0-.19-.27-.39-.43-.83-.52-1.31Z"/></g><path class="c" d="M37.54,77.69c-.11-1.34-.02-2.66,.26-3.97,.28-1.31,.75-2.56,1.41-3.76,.66-1.2,1.48-2.28,2.47-3.24,1.38-1.35,2.81-2.33,4.29-2.96,1.48-.63,2.92-.96,4.34-.99s2.74,.21,3.99,.72,2.34,1.25,3.28,2.21,1.6,1.92,2.05,2.94,.76,2.06,.92,3.11c.15,1.05,.2,2.08,.13,3.08-.07,1.01-.15,1.96-.23,2.86-.05,.44-.1,.88-.14,1.33-.04,.45-.08,.88-.11,1.29-.06,.83-.07,1.7-.03,2.63,.04,.92,.37,1.71,1,2.35,.48,.49,.68,1.02,.59,1.6-.09,.57-.33,1.05-.73,1.43s-.88,.62-1.45,.7c-.57,.08-1.1-.13-1.58-.62-1.15-1.18-1.83-2.47-2.02-3.87-.19-1.4-.21-2.87-.08-4.4,.05-.44,.1-.88,.14-1.33,.04-.45,.09-.92,.14-1.4,.08-.9,.14-1.75,.18-2.55,.03-.8,0-1.57-.11-2.28-.1-.72-.3-1.4-.58-2.03-.29-.64-.69-1.23-1.22-1.77s-1.12-.93-1.83-1.24c-.71-.31-1.51-.46-2.38-.45-.88,.02-1.78,.23-2.73,.65-.94,.41-1.89,1.09-2.85,2.03-.66,.65-1.22,1.38-1.67,2.21-.45,.82-.76,1.67-.94,2.54-.18,.87-.24,1.76-.18,2.66,.06,.9,.27,1.76,.63,2.56,.29,.64,.3,1.21,.06,1.71s-.62,.88-1.13,1.1-1.03,.27-1.59,.15c-.55-.13-.98-.51-1.26-1.15-.57-1.22-.91-2.51-1.01-3.84Zm24.79,15.28c.06-.9,.41-1.66,1.05-2.29s1.4-.95,2.29-.98c.89-.03,1.66,.29,2.31,.96s.94,1.39,.93,2.27-.36,1.65-1.05,2.32-1.48,1.01-2.36,1.01c-.89,0-1.65-.32-2.27-.95s-.94-1.45-.89-2.35Z"/><path class="c" d="M304.88,89.85c1.89-.59,3.82-.88,5.79-.9s3.92,.26,5.85,.81c1.93,.56,3.74,1.4,5.44,2.5,2.38,1.55,4.25,3.28,5.63,5.2,1.38,1.92,2.31,3.89,2.81,5.91s.58,4,.25,5.95c-.34,1.96-1.04,3.76-2.12,5.41s-2.24,2.91-3.57,3.89c-1.33,.98-2.72,1.75-4.17,2.31-1.45,.56-2.92,.95-4.39,1.17-1.47,.22-2.87,.42-4.18,.59-.65,.07-1.3,.14-1.96,.22-.66,.08-1.29,.17-1.89,.26-1.21,.18-2.47,.45-3.79,.8-1.31,.35-2.33,1.08-3.05,2.18-.55,.85-1.25,1.3-2.1,1.35-.85,.05-1.61-.14-2.29-.58s-1.17-1.06-1.47-1.86c-.29-.8-.17-1.62,.38-2.47,1.32-2.04,2.97-3.41,4.91-4.14,1.95-.73,4.05-1.23,6.29-1.52,.65-.07,1.3-.14,1.96-.22,.66-.08,1.34-.16,2.06-.24,1.32-.17,2.55-.36,3.72-.56,1.16-.21,2.25-.51,3.24-.88,1-.37,1.91-.87,2.73-1.48,.82-.62,1.54-1.39,2.14-2.32s.98-1.9,1.19-3.03c.22-1.12,.18-2.32-.12-3.56-.31-1.25-.9-2.49-1.8-3.71-.9-1.22-2.18-2.37-3.83-3.44-1.14-.74-2.38-1.31-3.7-1.69s-2.64-.56-3.95-.54c-1.31,.02-2.61,.23-3.88,.6-1.27,.38-2.43,.95-3.48,1.72-.82,.62-1.63,.82-2.44,.63s-1.46-.62-1.94-1.26-.72-1.39-.72-2.24c0-.84,.41-1.57,1.24-2.18,1.57-1.21,3.3-2.11,5.19-2.69Zm-13.98,40.48c1.31-.2,2.52,.05,3.62,.77,1.1,.72,1.81,1.71,2.14,2.98,.32,1.27,.11,2.47-.64,3.62s-1.7,1.79-2.97,2.06-2.48,.01-3.67-.76c-1.19-.77-1.93-1.8-2.21-3.07-.29-1.28-.08-2.47,.64-3.57s1.77-1.82,3.09-2.02Z"/><path class="e" d="M70.98,30.19s7.12,.24,8.96,3.29c1.83,3.05,3.02,11.17,3.02,11.17,0,0,1.18-8.12,3.02-11.17,1.83-3.05,8.96-3.29,8.96-3.29,0,0-7.12-.24-8.96-3.29-1.83-3.05-3.02-11.17-3.02-11.17,0,0-1.18,8.12-3.02,11.17-1.83,3.05-8.96,3.29-8.96,3.29Z"/><path class="e" d="M243.42,168.73s7.33,.23,9.21,3.13c1.89,2.9,3.1,12.55,3.1,12.55,0,0,1.22-9.65,3.1-12.55,1.89-2.9,9.21-3.13,9.21-3.13,0,0-7.33-.23-9.21-3.13-1.89-2.9-3.1-12.55-3.1-12.55,0,0-1.22,9.65-3.1,12.55-1.89,2.9-9.21,3.13-9.21,3.13Z"/><circle class="e" cx="296.32" cy="28.51" r="4.22"/><path class="c" d="M107.12,150.87c1.51,.02,3.02-.36,4.34-1.08"/></svg>